<svg version="1.1" id="Layer_1" xmlns="http://www.w3.org/2000/svg" xmlns:xlink="http://www.w3.org/1999/xlink" x="0px" y="0px"
	 width="100%" viewBox="0 0 255 255" enable-background="new 0 0 255 255" xml:space="preserve">
<path fill="#FDFDFD" opacity="1.000000" stroke="none" 
	d="
M1.000000,87.000000 
	C1.000000,59.000004 1.038579,31.499865 0.934912,4.000260 
	C0.925486,1.499650 1.500747,0.934888 4.000041,0.937173 
	C86.999954,1.013060 169.999969,1.013056 252.999878,0.937187 
	C255.498993,0.934902 256.065125,1.500588 256.062836,3.999996 
	C255.986923,86.999908 255.986954,169.999924 256.062805,252.999832 
	C256.065125,255.498825 255.499573,256.065094 253.000046,256.062805 
	C170.000137,255.986893 87.000076,255.966843 4.000363,256.117065 
	C0.561136,256.123322 0.975571,254.681427 0.976744,252.500137 
	C1.006311,197.500107 1.000000,142.500046 1.000000,87.000000 
z"/>
<path fill="#E7D81C" opacity="1.000000" stroke="none" 
	d="
M44.147888,234.997833 
	C43.637230,234.689438 43.498238,234.616409 43.405830,234.316818 
	C42.735714,233.639008 42.092899,233.061615 41.142403,232.351990 
	C40.867615,232.180679 40.898121,232.099167 40.858749,232.117706 
	C38.995243,222.660645 36.371418,213.191467 40.995964,203.417603 
	C43.647873,202.343353 45.991604,202.600677 48.299595,202.596817 
	C65.708122,202.567657 83.116699,202.593719 101.000015,202.573257 
	C104.876823,202.713684 108.298454,202.328415 112.103165,203.115021 
	C113.964172,204.165054 114.097084,205.638000 114.254982,207.507812 
	C114.246307,208.172195 114.230087,208.431870 114.167801,209.066727 
	C113.617714,214.370316 114.667694,219.025009 116.808395,223.781738 
	C117.134445,224.220413 117.254204,224.401291 117.518997,224.868683 
	C117.817833,225.543076 117.959122,225.935425 118.187698,226.615143 
	C118.360916,227.081451 118.430847,227.266113 118.608879,227.723450 
	C118.864792,228.354294 119.016685,228.710754 119.303680,229.324127 
	C119.522263,229.756165 119.609344,229.929779 119.827209,230.363983 
	C120.145828,230.973999 120.346489,231.315948 120.775604,231.880310 
	C121.145844,232.266052 121.297943,232.423355 121.676834,232.838287 
	C122.036308,233.293991 122.168983,233.492111 122.428795,234.041733 
	C122.562927,234.652740 122.569931,234.912231 122.454605,235.554047 
	C121.980156,236.390396 121.535637,236.723801 120.580643,237.092590 
	C109.738853,238.030457 99.308800,237.553574 88.888145,237.565750 
	C76.145210,237.580658 63.398060,237.909409 50.189674,237.287094 
	C47.929642,236.702255 46.135986,236.191589 44.147888,234.997833 
z"/>
<path fill="#141414" opacity="1.000000" stroke="none" 
	d="
M13.720982,137.357529 
	C15.087796,130.851532 17.873449,124.869484 21.570801,119.346542 
	C23.507135,116.454124 24.180552,113.840355 21.738001,110.874420 
	C20.079138,108.860107 19.822176,106.337891 20.071869,103.781364 
	C20.429630,100.118324 22.470354,98.138954 26.107183,97.830688 
	C32.308792,97.305031 37.863842,92.095688 38.674618,85.999222 
	C44.694897,40.730793 79.282875,10.721030 125.187897,10.497911 
	C139.764603,10.427063 153.980530,11.585065 167.943115,16.178801 
	C190.420349,23.573875 205.330978,38.845093 214.942413,59.896576 
	C218.278534,67.203522 220.126282,74.962189 221.213684,82.903557 
	C222.554749,92.697639 225.426376,95.810997 235.023575,97.830826 
	C239.034668,98.674995 241.917068,104.594734 239.193756,108.668205 
	C235.756668,113.809387 237.122345,117.470634 240.094818,121.924812 
	C242.742325,125.892052 244.660019,130.367249 246.167389,134.966980 
	C247.371902,138.642456 245.861481,139.590134 242.251602,138.626938 
	C241.864990,138.128494 241.730255,137.961411 241.570938,137.473846 
	C241.778473,136.299118 241.741760,135.473267 241.160034,134.369415 
	C239.940765,128.733139 237.453827,124.006462 234.346756,119.688263 
	C232.258636,116.786156 231.344589,114.211105 233.634644,111.125359 
	C234.026184,110.597786 234.244904,109.944748 234.443085,109.308205 
	C236.121094,103.918861 235.934265,101.707314 229.915176,102.280212 
	C228.928818,102.374092 227.924240,102.197418 226.623077,101.763924 
	C222.589706,97.975998 221.351837,92.272949 216.060760,89.503586 
	C215.352600,88.695328 215.180740,88.031342 215.211334,86.988892 
	C215.435516,85.885933 215.887985,85.137650 215.336121,84.030563 
	C214.657440,82.781860 214.257065,81.773209 214.459503,80.300888 
	C216.194351,77.718048 215.334717,75.714798 213.741394,73.474854 
	C213.372009,72.760788 213.246323,72.321907 213.194000,71.525146 
	C213.844620,68.568100 213.034363,66.431450 210.837814,64.409531 
	C210.536224,63.921207 210.446045,63.706806 210.289261,63.148338 
	C210.546341,59.394493 208.546906,56.764130 207.104752,54.013039 
	C197.416824,35.532043 182.463776,23.903805 161.607620,19.682884 
	C160.848190,19.775723 160.418106,19.780893 159.688721,19.683834 
	C158.675613,19.370655 157.964691,19.085785 156.912521,19.480211 
	C155.810074,19.714649 155.066864,19.496826 154.135040,18.892363 
	C153.334732,18.223888 152.759995,17.748486 151.659332,17.728752 
	C150.956955,17.714958 150.557495,17.645805 149.873230,17.411747 
	C148.371887,16.313303 147.234161,16.644714 145.809723,17.618477 
	C144.574799,18.043793 143.651947,18.043980 142.406250,17.642918 
	C140.264343,15.117574 138.171478,14.832218 135.459442,16.828144 
	C132.283600,17.625025 129.433884,17.521263 126.217590,17.053879 
	C123.439735,15.869636 121.021194,13.853118 118.345001,17.208382 
	C117.227982,17.936558 116.304382,18.041380 115.007462,17.878195 
	C113.700882,17.580830 112.860443,16.522793 111.463921,17.544449 
	C110.457253,18.270824 109.660988,18.654997 108.381058,18.541735 
	C106.026474,17.078669 104.279686,17.888784 102.286072,19.327076 
	C101.534531,19.659132 101.072571,19.750345 100.240250,19.782570 
	C95.697144,19.409435 92.172256,21.496590 88.540176,22.987352 
	C66.778015,31.919483 53.142612,47.997284 47.085682,70.616455 
	C46.527828,72.699707 45.411514,74.605804 45.138557,77.137924 
	C44.987705,77.705498 44.910484,77.926292 44.651497,78.442169 
	C43.681004,80.089531 44.478046,81.368263 44.733284,83.016228 
	C44.927608,84.068054 44.894085,84.773232 44.594261,85.810150 
	C41.520451,91.398293 37.561710,95.964714 34.117397,101.309959 
	C32.464329,102.305099 30.952871,102.237305 29.461037,102.326706 
	C24.506243,102.623611 23.031830,104.108574 25.506014,108.435883 
	C28.910522,114.390312 26.906706,118.648125 23.512245,123.321800 
	C20.958071,126.838509 19.989868,131.199219 17.785765,135.375580 
	C16.713364,136.855728 15.757704,137.819397 13.720982,137.357529 
z"/>
<path fill="#10100E" opacity="1.000000" stroke="none" 
	d="
M242.130005,136.508881 
	C242.051559,137.124329 242.037796,137.358398 242.011871,137.944031 
	C237.786591,136.327957 233.568802,134.370255 229.362793,132.387527 
	C227.822571,131.661469 226.819702,131.711578 226.876923,133.803253 
	C226.966919,137.093323 226.742447,140.242294 228.708328,143.382126 
	C236.957336,156.557114 235.803329,169.572250 227.064545,182.061569 
	C225.703842,184.006241 225.277573,185.846634 225.319687,188.059219 
	C225.534973,199.369629 225.772751,210.680496 225.854065,221.992279 
	C225.921555,231.381943 217.825073,239.414536 208.365219,239.418503 
	C156.700882,239.440170 105.036537,239.437042 53.372234,239.399307 
	C51.399109,239.397873 49.426308,238.953918 47.183224,238.442184 
	C46.371212,236.840256 47.339291,236.498947 48.615299,236.095978 
	C73.029594,236.070572 97.079506,236.069962 121.596207,235.989471 
	C122.460411,235.608231 122.894432,235.374893 123.731827,235.151794 
	C128.001511,234.815765 131.913269,235.086227 136.202637,234.837677 
	C137.124283,234.711243 137.662430,234.668289 138.628174,234.618164 
	C161.122452,234.311005 183.197769,234.209366 205.257660,234.608170 
	C216.945602,234.819458 220.910782,228.137665 221.394562,218.869644 
	C221.627335,214.410263 221.748276,209.912094 221.054352,205.008316 
	C220.920883,204.273010 220.865005,203.979309 220.751953,203.241211 
	C220.343109,197.201096 220.512222,191.601044 220.577148,186.002686 
	C220.598434,184.166962 220.963745,182.399094 222.348618,180.536362 
	C223.171783,179.598907 223.795715,179.066254 224.654266,178.226410 
	C231.269989,166.708191 231.979584,155.561813 224.244568,144.228546 
	C223.780518,143.751190 223.604645,143.546570 223.199112,143.001556 
	C221.042679,138.039398 220.977631,133.401215 223.091522,128.412933 
	C225.427673,126.296532 227.694885,126.983849 229.839539,127.798889 
	C233.667297,129.253571 237.435104,130.872192 240.955933,133.702042 
	C241.441406,134.763596 241.843445,135.433197 242.130005,136.508881 
z"/>
<path fill="#21211C" opacity="1.000000" stroke="none" 
	d="
M13.362818,137.647156 
	C14.576736,137.107346 15.678954,136.662598 16.616192,135.241959 
	C23.276140,130.603622 29.672600,126.249969 38.278046,126.792984 
	C41.514523,132.169250 40.723919,137.489792 39.251289,143.207367 
	C38.905491,143.804260 38.751301,144.029846 38.326019,144.552887 
	C31.572834,152.727097 30.876287,161.530396 34.005341,170.878006 
	C34.841717,173.376572 36.408234,175.581589 37.370583,178.467651 
	C37.420490,179.117615 37.392956,179.380951 37.134293,179.969177 
	C36.408493,180.537994 35.891792,180.600494 34.996460,180.300049 
	C25.514946,170.320145 25.864462,151.714661 33.804893,143.110367 
	C36.791981,139.873550 35.413216,136.218201 35.470181,132.734619 
	C35.506989,130.484009 33.638870,131.519562 32.528500,131.896591 
	C27.491619,133.606888 22.676111,135.852310 18.265871,138.805527 
	C16.134487,140.232773 14.732534,140.147888 13.362818,137.647156 
z"/>
<path fill="#10100E" opacity="1.000000" stroke="none" 
	d="
M34.717312,180.459579 
	C35.209026,180.058167 35.778282,179.998520 36.775291,179.900970 
	C37.481976,179.853409 37.760906,179.843765 38.323498,180.141464 
	C40.033333,187.405807 39.676662,194.567337 41.133835,201.932495 
	C41.260277,202.607651 41.278824,202.883499 41.058136,203.498077 
	C40.257515,213.132202 39.609989,222.429611 41.147003,231.902039 
	C39.927624,233.177979 39.383904,232.265701 38.905159,231.716202 
	C37.130623,229.679459 36.958858,227.188080 37.149036,224.666245 
	C38.147926,211.420593 34.829536,198.339905 35.642826,185.095078 
	C35.729321,183.686493 35.094852,182.233658 34.717312,180.459579 
z"/>
<path fill="#191809" opacity="1.000000" stroke="none" 
	d="
M48.649849,235.853195 
	C48.388268,236.595505 47.796848,237.119827 47.059261,237.906174 
	C45.261879,237.758362 43.735394,237.187027 43.522518,234.986572 
	C45.647095,233.507507 46.758194,235.609863 48.649849,235.853195 
z"/>
<path fill="#191809" opacity="1.000000" stroke="none" 
	d="
M40.601479,232.612091 
	C42.460396,230.852280 42.699539,232.759079 43.457077,233.740173 
	C41.592049,235.905518 41.273262,233.648651 40.601479,232.612091 
z"/>
<path fill="#2D2411" opacity="1.000000" stroke="none" 
	d="
M135.710510,235.909210 
	C131.982956,236.193848 128.508972,236.339172 124.787430,236.267151 
	C123.726837,235.656876 123.105789,235.029831 122.331589,234.096222 
	C122.159592,233.812637 122.078262,233.882523 122.131683,233.887024 
	C121.851746,233.766937 121.567528,233.571030 121.214279,233.068863 
	C121.096191,232.833801 121.113365,232.928040 121.147369,232.894318 
	C120.130333,232.393250 119.886772,231.322235 119.217377,230.186111 
	C119.056206,229.923126 119.013275,229.984100 119.050545,229.983139 
	C118.581139,229.587173 118.532608,228.978561 118.199066,228.182648 
	C118.035583,227.938660 118.001526,227.992279 118.033279,227.992767 
	C117.543488,227.553406 117.528793,226.890900 117.186516,226.030243 
	C117.046967,225.749512 117.046692,225.396362 116.948822,225.249390 
	C114.387802,221.044220 114.002075,216.432632 113.276543,211.518921 
	C113.279945,210.636520 113.366516,210.136337 113.434845,209.263550 
	C113.298828,207.543472 113.207878,206.200623 113.048698,204.458466 
	C112.813332,203.828247 112.646202,203.597351 112.268539,202.993225 
	C111.310417,196.799210 111.020569,191.028275 113.329865,185.415939 
	C116.098663,178.686890 121.293243,175.040863 128.320587,174.798645 
	C135.576736,174.548523 141.383438,177.553207 145.366028,184.106827 
	C148.632324,189.481689 148.481964,195.189972 148.403839,201.420898 
	C148.394684,202.086792 148.382233,202.349213 148.357758,202.998489 
	C148.296982,204.626236 148.204697,205.864258 148.061401,207.458130 
	C147.975586,208.047119 147.930847,208.279602 147.800110,208.852631 
	C147.590103,209.639648 147.477158,210.088928 147.340256,210.884552 
	C146.794846,215.372437 146.067322,219.470093 144.574310,223.739746 
	C144.400970,224.259262 144.336670,224.465714 144.157715,224.969299 
	C143.798294,225.829208 143.498108,226.363907 143.084015,227.163574 
	C142.864838,227.586472 142.775116,227.752274 142.547028,228.159851 
	C142.229248,228.720245 142.054413,229.041397 141.767609,229.609329 
	C141.564423,230.011780 141.477325,230.169724 141.240631,230.552322 
	C140.775116,231.213379 140.445297,231.640060 140.025055,232.338608 
	C139.787506,232.734299 139.688019,232.891525 139.419617,233.275146 
	C139.123505,233.642929 138.996307,233.784317 138.659058,234.122177 
	C138.294983,234.434433 138.140961,234.550217 137.730530,234.799835 
	C136.920517,235.121674 136.433746,235.430359 135.710510,235.909210 
z"/>
<path fill="#676334" opacity="1.000000" stroke="none" 
	d="
M41.297081,203.914246 
	C40.818897,203.836823 40.743507,203.509140 40.857506,203.385559 
	C42.204109,201.524109 44.110832,201.464767 45.920467,201.455322 
	C63.408833,201.363953 80.897583,201.252838 98.385658,201.504303 
	C99.050934,201.513855 99.704651,201.682434 100.807755,202.049377 
	C101.522972,202.452454 101.779640,202.662537 102.026855,203.370056 
	C81.936684,203.908890 61.855976,203.950287 41.297081,203.914246 
z"/>
<path fill="#D5CA43" opacity="1.000000" stroke="none" 
	d="
M113.697182,210.077576 
	C114.259148,215.144562 115.268074,219.791779 116.834625,224.711029 
	C113.359291,223.267639 114.327690,219.460342 113.231331,216.595215 
	C112.518417,214.732178 112.740959,212.511169 112.797218,210.206192 
	C113.249245,209.896973 113.448448,209.832123 113.697182,210.077576 
z"/>
<path fill="#5D5546" opacity="1.000000" stroke="none" 
	d="
M102.471085,203.921234 
	C102.017395,203.867493 101.983940,203.461777 101.970276,203.258698 
	C105.185478,200.680817 108.641548,201.249786 112.518417,202.564438 
	C112.934814,203.057617 112.965240,203.256531 112.988068,203.757294 
	C109.628571,204.031097 106.276680,204.003036 102.471085,203.921234 
z"/>
<path fill="#D5CA43" opacity="1.000000" stroke="none" 
	d="
M119.032990,230.291397 
	C119.715721,230.701721 120.375229,231.480331 121.108063,232.559753 
	C119.567673,233.004929 119.023979,232.093521 119.032990,230.291397 
z"/>
<path fill="#D5CA43" opacity="1.000000" stroke="none" 
	d="
M122.109009,234.160065 
	C122.859810,234.351105 123.560020,234.889587 124.400055,235.738922 
	C123.982895,236.073578 123.425911,236.097351 122.465958,236.015350 
	C122.061462,235.442230 122.059944,234.974869 122.109009,234.160065 
z"/>
<path fill="#D5CA43" opacity="1.000000" stroke="none" 
	d="
M118.032043,228.252167 
	C118.375450,228.418152 118.715309,228.897659 119.071495,229.679657 
	C118.734711,229.510010 118.381607,229.037857 118.032043,228.252167 
z"/>
<path fill="#D5CA43" opacity="1.000000" stroke="none" 
	d="
M117.034241,226.085754 
	C117.373154,226.285095 117.699341,226.820694 118.045280,227.674774 
	C117.717186,227.469513 117.369347,226.945740 117.034241,226.085754 
z"/>
<path fill="#5D5546" opacity="1.000000" stroke="none" 
	d="
M113.800362,210.118408 
	C113.746712,210.387894 113.396423,210.178421 113.223236,210.070129 
	C113.091461,209.778091 113.132889,209.594345 113.282043,209.148438 
	C113.544518,209.207184 113.699265,209.528061 113.800362,210.118408 
z"/>
<path fill="#D5CA43" opacity="1.000000" stroke="none" 
	d="
M121.172577,233.100616 
	C121.406265,233.009354 121.716347,233.184891 122.105759,233.625977 
	C121.873055,233.716812 121.561005,233.542114 121.172577,233.100616 
z"/>
<path fill="#FCF002" opacity="1.000000" stroke="none" 
	d="
M99.796417,19.610443 
	C100.591286,19.635391 101.024849,19.557165 101.735199,19.292437 
	C103.504288,17.729483 105.399498,17.731321 107.631393,17.696640 
	C108.842705,17.722494 109.671112,17.626806 110.760895,17.353870 
	C111.600044,16.416412 112.371880,16.247774 113.639633,16.626951 
	C115.079567,16.747843 116.142532,16.683538 117.569809,16.451843 
	C119.931435,15.093916 122.026878,14.613222 124.656952,15.615864 
	C128.370377,15.878822 131.725037,15.930667 135.533127,15.920588 
	C137.775040,14.680442 139.549942,14.892735 141.691589,16.060886 
	C143.104187,16.415367 144.142212,16.619621 145.579361,16.783314 
	C147.077515,16.119345 148.195877,15.925151 149.659027,16.913685 
	C150.374649,17.396898 150.784180,17.557264 151.528198,17.696320 
	C152.412018,17.323620 152.979385,17.260790 153.785461,17.782209 
	C154.785919,18.256189 155.570816,18.516289 156.667206,18.757179 
	C157.448410,18.489662 157.938171,18.440285 158.715363,18.861458 
	C159.378601,19.328278 159.774490,19.523520 160.505096,19.729183 
	C167.747116,19.844166 173.528717,23.267019 179.307022,26.369919 
	C192.899811,33.669113 202.847931,44.526825 209.426132,58.480896 
	C210.070602,59.847980 210.514130,61.256794 210.714752,63.121895 
	C210.749710,63.488003 210.716080,63.797520 210.832153,63.901253 
	C212.706314,65.806229 213.280426,68.070457 213.358566,70.815582 
	C213.306839,71.590347 213.377090,72.030441 213.642380,72.745728 
	C215.314255,74.848724 215.585388,77.014915 215.415710,79.638657 
	C215.391464,81.140282 215.538895,82.259880 215.826416,83.691261 
	C216.360535,84.363213 216.533920,84.809166 216.319092,85.677460 
	C216.152771,86.758804 216.154053,87.503601 216.268188,88.605484 
	C218.872070,90.779137 220.380569,93.381905 221.792191,96.002350 
	C223.380280,98.950325 222.693253,101.467476 219.238113,102.027527 
	C214.699890,102.763161 211.216415,104.982559 208.114578,108.159546 
	C206.680237,109.628647 204.401123,109.762405 202.851883,110.856621 
	C196.307007,115.479164 188.267395,117.062988 181.700928,121.554848 
	C180.153366,122.613464 178.501617,123.315903 176.705582,123.727158 
	C167.939438,125.734421 159.079956,127.225792 150.154068,128.279053 
	C128.444122,130.840790 107.015854,128.754852 85.731308,124.281296 
	C82.245003,123.548546 78.966324,122.564728 76.388931,119.943420 
	C75.807823,119.352409 75.071526,118.494156 74.374771,118.547890 
	C66.513008,119.154243 62.407799,111.344635 55.362064,110.145943 
	C53.700062,109.863182 52.319500,108.769455 51.171566,107.546265 
	C48.466732,104.664116 45.314865,102.879890 41.324013,102.155373 
	C37.163845,101.400116 36.465755,99.409805 38.622620,95.708580 
	C40.366928,92.715294 42.761631,90.084053 43.865532,86.302620 
	C44.357224,85.307198 44.557495,84.595169 44.736225,83.510826 
	C44.411243,81.840202 42.450100,80.603668 44.801792,79.527946 
	C45.132061,79.691292 45.229000,79.541786 45.294292,79.126892 
	C44.123920,75.516357 46.260452,72.751923 47.169567,69.907539 
	C55.521332,43.777130 72.573692,26.517487 99.796417,19.610443 
z"/>
<path fill="#2C2119" opacity="1.000000" stroke="none" 
	d="
M43.803093,86.064163 
	C45.030327,90.444641 41.748013,93.061302 39.652477,96.145866 
	C37.573704,99.205742 37.560131,101.050392 41.898624,101.112213 
	C42.886990,101.126289 44.145199,100.993973 44.816975,101.519691 
	C51.315975,106.605667 59.142746,109.549149 65.666122,114.533836 
	C67.112236,115.638847 67.826424,117.096344 70.170036,116.390396 
	C72.713799,115.624153 75.330658,116.716362 76.959488,118.669487 
	C79.308182,121.485802 82.394432,122.235718 85.651176,122.973877 
	C115.215637,129.674835 144.775772,129.725723 174.349686,123.030884 
	C177.610214,122.292770 180.764236,121.632141 183.014008,118.701401 
	C183.842331,117.622353 185.681366,116.432487 186.821930,116.634438 
	C191.564575,117.474167 193.840836,113.476433 197.273331,112.084145 
	C203.289108,109.644012 208.248322,106.050514 213.261047,102.236076 
	C214.686386,101.151474 216.672821,101.129684 218.548782,101.061050 
	C222.250305,100.925606 222.802628,99.185059 220.727554,96.260910 
	C219.191071,94.095757 217.774521,91.845482 216.342773,89.297852 
	C222.230728,90.266182 222.982925,96.077606 225.991943,100.205620 
	C226.861465,104.583000 223.542267,105.311676 221.113770,105.840309 
	C216.526947,106.838791 212.822464,108.819336 210.081894,112.636581 
	C208.851471,114.350410 207.049316,115.073845 204.986328,115.268700 
	C203.005615,115.455780 201.073914,115.829033 199.226364,117.432007 
	C196.654877,120.821808 194.218323,123.576202 189.662598,122.522865 
	C187.994827,122.137253 186.411972,122.983597 185.228333,124.198288 
	C182.930634,126.556259 179.988220,127.425537 176.541428,128.121216 
	C173.648941,128.275528 171.154251,128.482910 168.541870,129.949280 
	C167.459976,130.525497 166.692154,130.824127 165.474854,131.150650 
	C152.029602,132.705872 139.011749,133.873947 125.862656,133.607162 
	C115.876556,133.404572 106.007141,132.551559 96.207962,130.723358 
	C94.886299,130.476776 93.573853,130.463852 91.842697,130.476990 
	C91.178680,130.519958 90.920837,130.545532 90.287308,130.571457 
	C88.135681,129.703354 86.466156,128.496521 83.972153,128.752869 
	C80.992477,128.155121 78.500656,127.214607 76.497055,125.407585 
	C74.023232,123.176453 71.398026,122.102257 67.936844,122.563889 
	C64.497574,123.022583 62.887798,119.884956 60.442322,117.703781 
	C54.348366,115.316528 48.966503,112.558052 44.676636,107.846642 
	C43.383469,106.426407 40.993431,106.580574 39.108658,106.002220 
	C36.559380,105.219948 34.015423,104.334602 33.816471,100.795860 
	C34.115757,96.999535 37.205151,95.350533 38.778706,92.777420 
	C40.191784,90.466728 41.881535,88.325241 43.803093,86.064163 
z"/>
<path fill="#C4C1AA" opacity="1.000000" stroke="none" 
	d="
M33.565277,100.456329 
	C35.785770,103.505302 37.995323,105.562134 41.897472,105.359375 
	C44.689770,105.214279 47.215988,106.605980 48.723965,108.905693 
	C50.964832,112.323082 53.454868,114.697121 57.942768,114.140915 
	C58.863899,114.026756 59.937366,115.141769 61.012527,116.037643 
	C61.740677,118.133354 60.506424,118.957481 59.276897,119.312195 
	C51.988914,121.414742 45.450321,125.444984 37.771580,127.258820 
	C30.267241,128.469238 24.157019,132.361404 17.271910,135.144653 
	C19.590916,128.834900 22.282841,122.646599 26.091778,117.041969 
	C27.059191,115.618477 27.164782,114.413605 26.168171,112.983200 
	C25.420698,111.910362 24.811459,110.721214 24.277763,109.522804 
	C21.580370,103.465805 22.938911,101.205292 29.245123,101.027687 
	C30.533405,100.991409 31.812740,100.637314 33.565277,100.456329 
z"/>
<path fill="#C4C1AA" opacity="1.000000" stroke="none" 
	d="
M198.042511,117.279221 
	C198.588120,115.694633 199.759415,114.461746 200.922806,114.539330 
	C206.660339,114.921944 209.747726,111.282143 212.851791,107.386925 
	C213.901520,106.069626 215.684372,105.299919 217.299545,105.447243 
	C221.082703,105.792328 223.571747,103.928650 225.867371,100.913132 
	C227.584763,100.713242 229.205795,100.987404 230.832916,101.030045 
	C236.990219,101.191429 238.957016,103.395927 235.912369,108.624832 
	C232.924271,113.756577 233.643875,117.310966 236.774094,121.824852 
	C239.368500,125.566078 240.781876,130.126312 242.888290,134.707092 
	C242.710281,135.184662 242.362457,135.278824 241.506195,135.189621 
	C236.011887,131.716400 230.741364,129.070877 224.448837,127.963928 
	C215.804367,123.666443 206.545975,121.753181 198.042511,117.279221 
z"/>
<path fill="#2C2119" opacity="1.000000" stroke="none" 
	d="
M100.009521,19.350668 
	C96.284515,21.196753 92.320320,22.480087 88.552925,24.195621 
	C64.999367,34.921059 51.507591,53.638828 45.510822,78.650299 
	C42.277817,74.232651 45.790916,70.150238 47.020901,66.335922 
	C54.979267,41.656116 72.044418,26.086021 96.722191,18.617483 
	C97.871712,18.269588 98.935684,17.815481 100.009521,19.350668 
z"/>
<path fill="#2C2119" opacity="1.000000" stroke="none" 
	d="
M210.903214,63.143936 
	C202.996048,45.813091 190.874573,32.324669 173.033859,24.419460 
	C169.258179,22.746452 165.286957,21.514696 161.122833,19.909618 
	C161.552750,17.653425 162.927231,18.281967 164.468460,18.684410 
	C186.654190,24.477457 201.800018,38.342865 211.035995,59.065311 
	C211.621765,60.379589 211.928497,61.547943 210.903214,63.143936 
z"/>
<path fill="#2C2119" opacity="1.000000" stroke="none" 
	d="
M213.599335,71.014740 
	C212.474106,69.009102 211.711655,66.867950 210.948715,64.365891 
	C214.609283,65.131752 215.303772,67.559135 213.599335,71.014740 
z"/>
<path fill="#2C2119" opacity="1.000000" stroke="none" 
	d="
M124.920410,15.470670 
	C122.907051,16.044622 120.798386,16.262264 118.311920,16.382179 
	C119.579590,12.057434 122.281204,14.050380 124.920410,15.470670 
z"/>
<path fill="#2C2119" opacity="1.000000" stroke="none" 
	d="
M215.582428,79.930740 
	C214.759277,77.955124 214.274536,75.889565 213.813599,73.422455 
	C216.865921,74.581161 217.836899,76.769989 215.582428,79.930740 
z"/>
<path fill="#2C2119" opacity="1.000000" stroke="none" 
	d="
M107.939896,17.483692 
	C106.273079,18.263935 104.531860,18.709690 102.401321,19.130688 
	C103.208420,16.195873 105.132248,15.461854 107.939896,17.483692 
z"/>
<path fill="#2C2119" opacity="1.000000" stroke="none" 
	d="
M142.009583,15.875081 
	C140.287079,16.172327 138.507996,16.133541 136.357727,15.976710 
	C137.824005,12.926495 139.830673,13.153008 142.009583,15.875081 
z"/>
<path fill="#2C2119" opacity="1.000000" stroke="none" 
	d="
M149.928131,16.882603 
	C148.889923,17.166143 147.814743,17.095753 146.359024,16.884058 
	C147.149307,14.233209 148.461441,14.306377 149.928131,16.882603 
z"/>
<path fill="#2C2119" opacity="1.000000" stroke="none" 
	d="
M113.948235,16.487942 
	C113.271706,16.966702 112.526794,17.121256 111.402069,17.226217 
	C111.369125,15.130268 112.106865,14.186657 113.948235,16.487942 
z"/>
<path fill="#2C2119" opacity="1.000000" stroke="none" 
	d="
M44.635361,79.673187 
	C45.011166,80.780159 44.987206,81.719521 44.838963,82.898697 
	C42.936932,82.140915 42.117371,81.016953 44.635361,79.673187 
z"/>
<path fill="#2C2C2B" opacity="1.000000" stroke="none" 
	d="
M241.101456,135.258148 
	C241.340988,135.023178 241.684250,135.040115 242.542786,135.073776 
	C244.439453,136.116394 243.782944,136.581894 242.313965,136.891327 
	C241.778610,136.430206 241.491898,135.970139 241.101456,135.258148 
z"/>
<path fill="#2C2119" opacity="1.000000" stroke="none" 
	d="
M153.946991,17.673552 
	C153.451233,17.978876 152.901428,17.961660 152.107147,17.809727 
	C152.353531,16.402100 152.922989,15.621740 153.946991,17.673552 
z"/>
<path fill="#2C2119" opacity="1.000000" stroke="none" 
	d="
M158.956039,18.837963 
	C158.521942,19.108103 158.061172,19.083168 157.289551,18.898100 
	C157.099930,18.079166 157.282318,17.358162 158.110397,17.498915 
	C158.433212,17.553785 158.659241,18.178001 158.956039,18.837963 
z"/>
<path fill="#2C2119" opacity="1.000000" stroke="none" 
	d="
M216.438385,85.964706 
	C216.047073,85.569862 215.942673,85.125710 215.902390,84.342300 
	C216.493469,84.294968 217.020432,84.586884 217.547394,84.878807 
	C217.273361,85.224335 216.999329,85.569862 216.438385,85.964706 
z"/>
<path fill="#F8F8F8" opacity="1.000000" stroke="none" 
	d="
M197.592377,117.049347 
	C205.795471,119.679291 214.018478,121.536682 221.379486,125.685226 
	C222.214996,126.156097 222.909149,126.877823 223.865967,127.772781 
	C223.420029,132.744995 223.186356,137.427780 224.155838,142.509338 
	C224.975067,144.237869 225.388412,145.683090 225.345047,147.172775 
	C225.034485,157.841751 226.347214,168.548141 224.364655,179.607025 
	C221.414734,183.147766 222.186920,186.933609 222.119125,190.541840 
	C222.047134,194.372910 222.072296,198.205795 221.978607,202.498459 
	C220.319214,204.543564 218.272156,204.396454 216.298462,204.399384 
	C195.097778,204.430847 173.897064,204.430176 152.696365,204.400574 
	C151.048370,204.398270 149.365234,204.483139 147.494476,203.223999 
	C147.027084,199.752853 146.904770,196.605453 146.856445,193.456909 
	C146.686722,182.398209 138.070435,175.831558 129.295029,175.852249 
	C119.626778,175.875015 112.860229,183.032928 113.137268,192.996857 
	C113.220268,195.981918 113.102097,198.972580 112.990234,202.409683 
	C109.557922,202.865936 106.211456,202.873169 102.410812,202.968002 
	C81.923264,203.014633 61.889908,202.973663 41.414032,203.097336 
	C38.204121,202.893631 38.995384,200.745514 38.903755,199.072342 
	C38.571930,193.013123 39.591007,186.904633 38.088783,180.437988 
	C36.979305,178.033447 36.536694,175.943909 36.611000,173.781784 
	C36.943256,164.114319 35.760426,154.411133 37.535839,144.343307 
	C39.482380,138.559464 39.768803,133.203613 37.603378,127.459488 
	C44.835476,122.869026 53.028912,120.477676 60.950920,116.758965 
	C63.883518,119.120522 65.993889,123.058662 71.186813,120.919464 
	C72.965775,120.186630 74.512047,121.979774 75.763123,123.339073 
	C77.941841,125.706253 80.700317,126.863434 83.941429,127.625275 
	C83.095329,129.155365 81.732979,129.137665 80.415314,129.287323 
	C63.451111,131.214127 51.595387,146.315002 53.817917,163.647064 
	C54.172321,176.179291 60.724876,184.882339 71.058052,189.499695 
	C86.722351,196.499268 102.199707,189.217316 108.584259,172.027359 
	C112.329353,161.943985 111.872032,151.725159 105.206299,142.161880 
	C103.821747,140.005096 103.075203,137.823807 100.824997,136.363922 
	C100.377701,136.070206 100.201767,135.950912 99.769363,135.648041 
	C98.704453,134.826843 97.846771,134.274200 96.583588,133.810059 
	C96.122330,133.585068 95.944885,133.481583 95.527733,133.187134 
	C94.557793,132.312012 93.814514,131.647354 92.533295,131.265747 
	C91.842690,131.074432 91.454155,130.939911 90.605743,130.384094 
	C91.883614,128.083878 94.028328,128.945663 95.986725,129.284500 
	C116.628304,132.855728 137.308060,133.154953 158.053146,130.272156 
	C160.336655,129.954819 162.681900,130.081909 165.443542,130.032196 
	C166.319244,132.006241 164.672180,132.619217 163.561569,133.403290 
	C155.144012,139.346039 150.221893,147.296921 149.362061,158.013519 
	C149.327682,159.835403 149.300064,161.292297 149.328751,163.106140 
	C149.275711,169.496689 151.729980,174.630859 155.331482,179.648788 
	C155.952072,180.121445 156.289261,180.409119 156.859283,180.926117 
	C157.413956,181.440674 157.716293,181.747055 158.230072,182.292709 
	C158.730316,182.842606 158.996689,183.172867 159.439926,183.767792 
	C159.996017,184.542358 160.353714,185.069214 161.011459,185.775406 
	C164.479065,188.976288 168.249832,190.884338 172.914551,191.733475 
	C173.736435,191.791275 174.207108,191.842819 175.034470,191.961853 
	C188.789230,194.072357 203.217361,183.216415 205.647614,169.205551 
	C205.930023,167.577438 206.229599,165.954315 206.567749,163.961975 
	C207.167801,157.015533 206.318619,150.696945 203.188828,144.795410 
	C198.392242,135.751007 190.643936,130.996384 180.737839,129.418365 
	C179.434235,129.210693 178.084595,129.293839 176.490646,128.591049 
	C176.007431,128.173340 175.860489,127.956718 175.861725,127.376465 
	C179.518555,126.092117 183.107529,125.415741 185.496277,122.183647 
	C186.432709,120.916580 188.134567,120.332130 189.542984,120.934753 
	C193.711670,122.718445 195.675812,120.432266 197.592377,117.049347 
z"/>
<path fill="#E6D81C" opacity="1.000000" stroke="none" 
	d="
M142.815460,226.046021 
	C142.956161,225.765808 142.959366,225.407578 143.056366,225.256989 
	C146.062027,220.355682 146.244720,214.933228 146.943329,209.277283 
	C146.912918,207.567368 146.903137,206.223145 146.965332,204.481415 
	C148.211456,203.151627 149.596344,203.531296 150.889008,203.531448 
	C174.337128,203.534409 197.785309,203.462173 221.697510,203.728516 
	C222.721573,211.645645 223.753998,219.443344 221.459061,227.050522 
	C219.555023,233.361954 215.566010,236.085205 208.792801,236.092087 
	C185.485626,236.115784 162.178391,236.083862 138.404144,235.994965 
	C137.589233,235.508652 137.447144,235.038361 137.677216,234.161682 
	C137.843552,233.817459 137.924988,233.882874 137.873260,233.890076 
	C138.159851,233.780472 138.446640,233.587219 138.794739,233.078568 
	C138.907684,232.839737 138.893356,232.934769 138.859283,232.900879 
	C139.852585,232.381744 140.187195,231.377808 140.788574,230.189545 
	C140.946335,229.923615 140.987427,229.984375 140.950745,229.984375 
	C141.436554,229.602341 141.504868,229.002274 141.812027,228.191956 
	C141.969269,227.942505 142.001144,227.993820 141.970978,227.995178 
	C142.481888,227.570038 142.506042,226.916382 142.815460,226.046021 
z"/>
<path fill="#D8C819" opacity="1.000000" stroke="none" 
	d="
M224.905548,143.755035 
	C233.039398,154.829803 232.599396,166.497543 225.984131,178.632477 
	C223.693024,178.569382 224.563293,176.874237 224.560669,175.791794 
	C224.535202,165.235397 224.411423,154.678223 224.905548,143.755035 
z"/>
<path fill="#615E3A" opacity="1.000000" stroke="none" 
	d="
M222.157349,203.650391 
	C197.430878,203.949127 172.700134,203.995209 147.503357,204.062592 
	C147.031433,203.885345 147.025543,203.686798 147.067566,203.194519 
	C171.738831,202.886566 196.362167,202.872345 221.443848,202.908569 
	C221.985794,203.105255 222.069427,203.251495 222.157349,203.650391 
z"/>
<path fill="#5D633A" opacity="1.000000" stroke="none" 
	d="
M225.013794,143.193085 
	C224.854279,155.027023 224.826584,166.665436 225.531433,178.619537 
	C225.423538,179.294800 225.052872,179.653717 224.395691,180.021332 
	C224.071243,167.962296 224.033295,155.894562 224.123810,143.367340 
	C224.438080,142.937912 224.623871,142.967972 225.013794,143.193085 
z"/>
<path fill="#D4C943" opacity="1.000000" stroke="none" 
	d="
M137.520935,233.918869 
	C137.885056,234.283401 137.926544,234.749344 137.952576,235.566040 
	C137.388824,235.988205 136.840561,236.059631 135.874603,236.089783 
	C136.037399,235.372437 136.617859,234.696365 137.520935,233.918869 
z"/>
<path fill="#DBCD18" opacity="1.000000" stroke="none" 
	d="
M37.193260,178.203125 
	C29.357521,167.386215 29.089323,154.248230 36.574593,144.342133 
	C38.182346,149.922897 37.284821,155.692459 37.444912,161.423019 
	C37.597111,166.870987 37.559372,172.328873 37.193260,178.203125 
z"/>
<path fill="#6C6A4B" opacity="1.000000" stroke="none" 
	d="
M36.990326,178.940048 
	C36.956558,167.459198 36.953732,156.293869 36.919132,144.679565 
	C36.887360,144.230576 37.294510,143.962219 37.537132,143.938110 
	C37.861626,155.630783 37.943501,167.347595 37.981293,179.529266 
	C37.937206,179.994125 37.564426,179.957397 37.383736,179.910233 
	C37.142452,179.660568 37.081860,179.458084 36.990326,178.940048 
z"/>
<path fill="#FBEF00" opacity="1.000000" stroke="none" 
	d="
M143.250214,203.273041 
	C142.806824,211.394440 141.767609,218.963028 138.482605,225.993912 
	C136.783554,229.630356 134.723373,233.359436 129.945435,233.319443 
	C125.180611,233.279587 123.022705,229.559860 121.492104,225.879227 
	C116.521431,213.926346 115.507591,201.390793 117.426605,188.712616 
	C118.428749,182.091812 123.313812,178.914734 130.279114,179.230774 
	C136.946732,179.533310 141.828217,183.740158 142.943054,190.396591 
	C143.630905,194.503525 143.609070,198.669815 143.250214,203.273041 
z"/>
<path fill="#D4C943" opacity="1.000000" stroke="none" 
	d="
M146.832306,208.877930 
	C147.845291,214.611206 146.585449,219.890137 143.498596,224.994904 
	C144.173920,220.452667 145.194489,215.798965 146.243652,210.745010 
	C146.258774,209.999527 146.358627,209.694244 146.582520,209.186234 
	C146.572250,208.936111 146.741913,208.844299 146.832306,208.877930 
z"/>
<path fill="#D4C943" opacity="1.000000" stroke="none" 
	d="
M140.686005,230.091370 
	C140.973160,231.136475 141.177612,232.433350 139.189941,232.866440 
	C139.358704,231.997711 139.892197,231.128418 140.686005,230.091370 
z"/>
<path fill="#D4C943" opacity="1.000000" stroke="none" 
	d="
M141.730713,228.125992 
	C141.798538,228.520508 141.627792,229.098526 141.185562,229.830444 
	C141.106766,229.426071 141.299469,228.867783 141.730713,228.125992 
z"/>
<path fill="#D4C943" opacity="1.000000" stroke="none" 
	d="
M142.726547,225.986511 
	C142.804169,226.391785 142.652191,227.017746 142.220520,227.820129 
	C142.126190,227.400116 142.311554,226.803680 142.726547,225.986511 
z"/>
<path fill="#605746" opacity="1.000000" stroke="none" 
	d="
M146.415070,209.137894 
	C146.577209,209.268692 146.582169,209.601257 146.429672,210.139313 
	C146.267441,210.009735 146.262680,209.674713 146.415070,209.137894 
z"/>
<path fill="#D4C943" opacity="1.000000" stroke="none" 
	d="
M138.639343,232.908020 
	C138.724594,233.145538 138.541504,233.451355 138.089966,233.827225 
	C138.004684,233.590302 138.187836,233.283295 138.639343,232.908020 
z"/>
<path fill="#05A1E6" opacity="1.000000" stroke="none" 
	d="
M203.593246,69.499207 
	C207.855560,66.627968 209.618271,67.912544 210.954193,72.291252 
	C215.240143,86.339012 215.192291,86.668709 201.443848,91.405319 
	C191.366730,94.877075 180.978088,97.009460 170.528351,98.988297 
	C166.539017,99.743752 165.621323,98.532646 165.926956,94.798454 
	C166.237564,91.003296 166.186462,87.150276 165.934494,83.346382 
	C165.737015,80.364937 166.849655,79.399162 169.734543,78.954155 
	C181.249710,77.177895 192.468781,74.213181 203.593246,69.499207 
z"/>
<path fill="#05A1E6" opacity="1.000000" stroke="none" 
	d="
M88.520767,98.716400 
	C75.103828,96.365952 62.393162,93.198860 50.172123,88.155067 
	C47.342110,86.987083 46.433105,85.540657 46.985752,82.558426 
	C47.776440,78.291641 48.919186,74.145142 50.173737,70.003357 
	C50.989029,67.311752 52.215714,67.374336 54.491676,68.449043 
	C65.855995,73.815277 77.924767,76.936523 90.277435,78.909058 
	C93.352150,79.400040 94.625809,80.355492 94.347855,83.600365 
	C94.050644,87.070023 93.978584,90.617676 94.354950,94.071716 
	C94.845245,98.571297 93.426041,100.255142 88.520767,98.716400 
z"/>
<path fill="#06A1E6" opacity="1.000000" stroke="none" 
	d="
M131.442200,98.633011 
	C129.975693,99.904144 128.602295,100.147522 127.026115,100.139374 
	C117.547646,100.090401 108.068787,100.115051 97.692253,100.115051 
	C105.739143,86.160484 113.478416,72.739380 121.577148,58.694923 
	C124.370186,63.794060 126.833214,68.290710 129.625549,72.910706 
	C130.165390,77.754517 126.194847,80.642265 124.849823,84.957054 
	C128.503998,86.319969 132.287216,85.235023 136.318024,85.985909 
	C138.579742,86.802963 138.545822,88.290306 137.826508,89.715996 
	C136.212158,92.915665 134.903671,96.354683 131.442200,98.633011 
z"/>
<path fill="#066AB4" opacity="1.000000" stroke="none" 
	d="
M123.278435,86.035828 
	C125.222687,81.679749 127.460968,77.671272 129.827057,73.348434 
	C132.697311,68.521950 135.439774,64.009842 138.601791,58.807442 
	C146.516190,72.545609 154.203491,85.889595 162.342697,100.017982 
	C151.539001,99.884056 141.439972,100.758675 131.195923,99.127014 
	C133.402267,95.050964 136.114624,91.617294 137.281891,87.186920 
	C132.628647,85.838318 128.067062,86.893654 123.278435,86.035828 
z"/>
<path fill="#036FB8" opacity="1.000000" stroke="none" 
	d="
M88.658302,129.751648 
	C89.210777,129.938324 89.395462,129.959778 89.859451,129.982391 
	C90.138756,129.983536 90.044762,130.013046 90.023186,129.968765 
	C90.511192,130.640854 91.239700,130.956253 92.389717,131.129852 
	C93.640930,131.671616 94.648125,132.004211 95.867004,132.642761 
	C96.145317,132.799042 96.037285,132.989334 96.078247,132.887939 
	C96.960663,133.908203 98.523933,133.692719 99.767181,134.763367 
	C100.053848,134.925629 100.022781,134.990707 100.050552,134.967636 
	C100.921646,136.008499 101.548454,137.147995 101.162811,138.927612 
	C100.329750,139.761246 99.586639,139.953369 98.416832,139.953796 
	C92.872757,137.762894 87.592865,136.012466 81.888260,136.436813 
	C79.168564,136.639114 76.515213,137.208466 76.741508,141.284470 
	C76.499512,144.447006 73.695084,145.199188 72.130844,147.396133 
	C69.683083,149.656754 67.361397,151.572021 66.556137,155.036530 
	C62.558071,162.232452 65.275795,170.900116 73.039597,176.444733 
	C74.520805,177.502548 76.299271,178.161591 77.544716,180.092560 
	C77.532394,186.135712 73.088928,186.397415 68.686302,187.218628 
	C59.970852,183.688675 56.119957,176.748535 54.090424,168.496323 
	C53.785667,167.257156 53.610817,165.925888 53.451496,164.224640 
	C50.164417,145.677139 67.962799,124.982033 88.658302,129.751648 
z"/>
<path fill="#17283E" opacity="1.000000" stroke="none" 
	d="
M175.663391,127.874252 
	C196.568054,128.800140 208.677505,142.084473 207.903900,163.547333 
	C207.293945,164.556824 206.657471,164.746750 205.594650,164.605988 
	C205.069489,164.376755 204.880280,164.241531 204.510376,163.808136 
	C204.089355,162.851852 204.022263,162.169754 204.079376,161.141510 
	C204.415176,159.342621 204.852020,157.883682 204.245056,156.064240 
	C203.832977,154.488861 203.809174,153.170990 203.352631,151.607117 
	C202.847809,149.874008 202.496552,148.427612 201.519623,146.886719 
	C200.652863,145.566193 200.217819,144.381332 199.507111,142.988770 
	C199.108994,142.380310 198.857407,142.047729 198.369324,141.494461 
	C197.234375,140.308746 196.299835,139.377274 195.032349,138.291733 
	C177.669525,123.971367 158.642975,135.040985 153.662140,149.189255 
	C152.672760,151.999634 152.147812,154.980942 150.442719,157.910065 
	C149.734253,158.446152 149.245682,158.527863 148.417206,158.219421 
	C149.009506,145.691299 155.198273,136.799286 165.810364,130.388000 
	C166.293793,129.816162 166.699036,129.570801 167.278137,129.160721 
	C170.132126,128.957520 172.628616,127.749176 175.663391,127.874252 
z"/>
<path fill="#17293F" opacity="1.000000" stroke="none" 
	d="
M89.011177,129.567566 
	C88.447800,130.225006 87.869293,130.802795 87.291260,130.802322 
	C65.526726,130.784637 53.937008,142.016907 53.997261,163.554779 
	C53.710022,164.179016 53.446907,164.354065 52.724464,164.411987 
	C49.971817,144.930466 64.119614,128.336487 83.607437,128.024063 
	C85.522949,129.112717 88.245979,125.168015 89.011177,129.567566 
z"/>
<path fill="#959392" opacity="1.000000" stroke="none" 
	d="
M175.972168,127.743469 
	C173.417999,128.904999 170.784546,129.608200 167.726303,129.263245 
	C169.780914,127.370285 172.497528,127.163902 175.601624,126.947083 
	C176.009888,127.012848 175.934296,127.499939 175.972168,127.743469 
z"/>
<path fill="#99D4F8" opacity="1.000000" stroke="none" 
	d="
M174.835526,192.900177 
	C174.484818,193.060699 174.190887,193.254837 174.190887,193.254837 
	C174.190887,193.254837 173.839767,193.226074 173.704941,193.112946 
	C173.385468,192.913116 173.200806,192.826416 172.865021,192.472961 
	C172.400101,191.932144 173.635376,191.336807 172.182922,191.258453 
	C168.690948,190.498398 165.300552,190.104294 163.775864,186.240448 
	C167.064529,184.267426 171.072418,183.936356 173.320068,180.040176 
	C174.326706,179.180618 175.226425,178.880356 176.477692,178.517578 
	C177.050430,178.410995 177.281326,178.387863 177.856140,178.379059 
	C181.689011,179.074417 184.723831,178.157211 187.598785,175.560196 
	C192.081100,172.435394 193.031067,167.750000 194.647614,163.039810 
	C195.679504,162.389908 196.599716,162.320831 197.159180,162.984833 
	C199.711273,166.013718 202.306961,164.912384 205.290619,163.241974 
	C205.627731,163.272614 205.793274,163.593979 205.877182,163.754074 
	C206.133621,175.467865 197.992401,186.978760 186.784653,190.759399 
	C183.054535,192.017654 179.226532,193.107239 174.835526,192.900177 
z"/>
<path fill="#19263D" opacity="1.000000" stroke="none" 
	d="
M52.226776,164.714478 
	C52.548523,164.238739 52.831909,164.182587 53.544216,164.065216 
	C55.580296,172.873459 59.135807,180.603729 67.109528,185.969482 
	C68.668831,186.457535 69.988914,186.772064 71.174530,187.307205 
	C87.881706,194.848099 103.372368,183.729355 106.941216,168.255188 
	C107.641762,166.020340 107.674225,164.066345 107.836624,161.767593 
	C108.159477,159.827438 108.710991,158.268417 108.226158,156.286865 
	C107.838943,154.604355 107.758820,153.216583 107.295456,151.549469 
	C106.770828,149.645844 106.279930,148.099182 105.304649,146.346283 
	C104.496262,144.619141 103.957130,143.195297 104.274055,141.220886 
	C104.525993,140.605545 104.670692,140.376511 105.212585,140.233383 
	C116.574463,155.075180 112.981956,177.765656 98.016960,188.276001 
	C81.395630,199.949677 58.281960,190.331589 53.031696,169.541977 
	C52.666031,168.094025 52.465656,166.604355 52.226776,164.714478 
z"/>
<path fill="#1E2C42" opacity="1.000000" stroke="none" 
	d="
M174.878540,193.130432 
	C173.908722,191.766968 174.517227,191.163910 175.744705,191.166183 
	C193.544998,191.199234 202.227936,180.937271 205.811111,164.320068 
	C206.417114,163.939819 206.873138,163.965469 207.558044,163.991119 
	C207.239807,170.211288 205.360443,175.974091 201.605103,181.000793 
	C195.041611,189.786331 186.399567,194.206085 174.878540,193.130432 
z"/>
<path fill="#1E2C42" opacity="1.000000" stroke="none" 
	d="
M155.855423,181.647278 
	C151.122391,176.876144 148.938797,171.131821 148.161209,164.397064 
	C148.609360,163.628937 149.081207,163.491745 149.959198,163.772003 
	C152.040955,169.502396 155.193710,174.488342 156.662140,180.511703 
	C156.488068,181.138382 156.369232,181.374619 155.855423,181.647278 
z"/>
<path fill="#1E2C42" opacity="1.000000" stroke="none" 
	d="
M163.118195,185.791840 
	C165.859619,188.615463 169.263489,189.391647 172.702576,190.866089 
	C173.095779,191.343399 173.213852,191.596481 173.305878,192.267685 
	C173.279831,192.685791 173.228348,193.024536 173.399231,193.012177 
	C168.485947,192.244049 164.099121,189.996567 160.172607,186.129883 
	C161.069412,184.977020 161.973663,185.098343 163.118195,185.791840 
z"/>
<path fill="#19263D" opacity="1.000000" stroke="none" 
	d="
M101.294136,139.165039 
	C100.725060,137.739990 99.520721,136.972351 99.831413,135.243958 
	C102.501755,135.802429 103.800026,137.888748 105.461792,140.029541 
	C105.387016,140.556885 105.164238,140.794464 104.600731,141.382156 
	C104.046120,141.702133 103.832237,141.672028 103.314957,141.523010 
	C102.227036,140.957047 101.613174,140.355865 101.294136,139.165039 
z"/>
<path fill="#1C2E45" opacity="1.000000" stroke="none" 
	d="
M150.304504,163.647751 
	C149.589035,164.001892 149.193665,164.000885 148.501740,163.999359 
	C148.099854,162.278214 147.994507,160.557571 147.997437,158.417328 
	C148.505371,158.001083 148.905029,158.004456 149.604462,158.007339 
	C151.541565,159.578339 151.417038,161.389954 150.304504,163.647751 
z"/>
<path fill="#19263D" opacity="1.000000" stroke="none" 
	d="
M96.225616,132.462494 
	C94.852547,133.748459 93.774734,132.869675 92.324211,132.203003 
	C91.655090,131.662170 91.509224,131.238525 91.782204,130.469864 
	C93.696136,130.262436 94.976753,131.248230 96.225616,132.462494 
z"/>
<path fill="#19263D" opacity="1.000000" stroke="none" 
	d="
M99.926521,134.595154 
	C98.172646,136.076614 97.223473,134.490158 96.084625,133.174500 
	C97.814812,132.111816 98.625412,133.640335 99.926521,134.595154 
z"/>
<path fill="#172A41" opacity="1.000000" stroke="none" 
	d="
M91.679626,130.092590 
	C92.001633,130.598297 91.999420,131.003845 91.997704,131.713654 
	C91.061096,131.937088 90.267082,131.665466 90.042068,130.252838 
	C90.452881,129.947128 90.904152,129.969772 91.679626,130.092590 
z"/>
<path fill="#1E2C42" opacity="1.000000" stroke="none" 
	d="
M160.074554,185.915253 
	C159.323318,185.774323 158.800949,185.394836 158.125519,184.723938 
	C158.131485,184.293137 158.290466,184.153778 158.717148,183.842545 
	C159.692032,183.663498 160.172043,184.036514 160.649506,184.898880 
	C160.607956,185.358002 160.455673,185.517349 160.074554,185.915253 
z"/>
<path fill="#1E2C42" opacity="1.000000" stroke="none" 
	d="
M158.360382,184.236755 
	C157.661926,184.319351 157.396729,184.139359 157.095749,183.663925 
	C157.167633,183.293518 157.320679,183.151703 157.731506,182.831802 
	C158.419968,182.635757 158.803268,182.766006 159.308685,183.291290 
	C159.230377,183.719757 158.989319,183.880371 158.360382,184.236755 
z"/>
<path fill="#1E2C42" opacity="1.000000" stroke="none" 
	d="
M157.390350,183.232635 
	C156.725662,183.303452 156.475342,183.119125 156.188995,182.659851 
	C156.251709,182.289093 156.389023,182.140839 156.777374,181.822052 
	C157.445251,181.639984 157.815948,181.769043 158.305084,182.277802 
	C158.230804,182.701202 157.998444,182.865570 157.390350,183.232635 
z"/>
<path fill="#1E2C42" opacity="1.000000" stroke="none" 
	d="
M156.468536,182.227753 
	C155.899323,182.341019 155.725662,182.195343 155.526917,181.842010 
	C155.652832,181.474106 155.845215,181.264511 156.342896,180.756683 
	C156.824188,180.606949 157.000214,180.755447 157.328583,181.213989 
	C157.261520,181.688751 157.042099,181.853455 156.468536,182.227753 
z"/>
<path fill="#ADD144" opacity="1.000000" stroke="none" 
	d="
M122.711540,85.952156 
	C127.537346,85.863373 132.090286,86.038513 136.870117,86.587875 
	C132.216385,86.605476 127.244690,88.038399 122.711540,85.952156 
z"/>
<path fill="#9AD4F7" opacity="1.000000" stroke="none" 
	d="
M108.353119,167.846558 
	C107.028130,174.621826 103.968811,180.329346 98.776917,184.800873 
	C89.861252,192.479523 78.194702,193.186783 67.633179,186.324219 
	C71.565186,185.994812 75.289444,185.147186 77.506104,180.695618 
	C78.763657,178.292587 80.812897,178.904083 82.951225,178.655258 
	C91.014893,177.894180 94.924049,172.842056 97.715393,165.980988 
	C101.439240,165.802582 104.201050,169.654022 108.353119,167.846558 
z"/>
<path fill="#69A9CB" opacity="1.000000" stroke="none" 
	d="
M76.562866,142.410309 
	C73.548721,138.352631 75.096298,136.199646 79.152397,135.558395 
	C85.516693,134.552246 91.704659,135.168793 97.660202,138.838470 
	C98.764610,139.799011 99.011696,140.752228 98.842545,142.200455 
	C98.594849,143.067764 98.352737,143.519669 97.788589,144.226196 
	C96.375816,145.582779 95.046066,146.326584 93.108109,146.669373 
	C92.467148,146.641586 92.213150,146.595673 91.602631,146.400482 
	C88.595718,144.094116 85.557114,143.196747 82.152718,143.292496 
	C80.370827,143.342590 78.544754,143.475449 76.562866,142.410309 
z"/>
<path fill="#F3F5F5" opacity="1.000000" stroke="none" 
	d="
M65.569992,155.132599 
	C65.868629,151.402679 67.628662,149.191147 70.863693,147.648102 
	C71.389198,146.501236 72.227875,146.395828 73.367783,146.113464 
	C76.026077,146.388763 77.753990,147.644119 79.608932,149.465790 
	C82.018661,155.563477 79.537468,158.924179 71.919830,159.960297 
	C69.462532,159.345352 67.464874,158.671265 65.824959,156.619324 
	C65.572014,156.025406 65.521065,155.768784 65.569992,155.132599 
z"/>
<path fill="#1E384D" opacity="1.000000" stroke="none" 
	d="
M65.320480,154.880829 
	C65.767731,154.941162 65.865601,155.129272 66.049171,155.623688 
	C66.680649,156.977356 66.764000,158.081512 66.767113,159.259964 
	C66.793510,169.270325 71.901558,175.287033 81.604652,176.818893 
	C82.256935,176.921875 82.888672,177.080673 83.811409,177.558807 
	C84.412933,178.234940 84.517479,178.728149 84.223244,179.582703 
	C82.123680,179.989304 80.243172,180.072906 77.994492,180.255951 
	C69.980568,177.126785 64.752739,171.865128 63.404423,163.371933 
	C62.934158,160.409653 62.942043,157.513748 65.320480,154.880829 
z"/>
<path fill="#284159" opacity="1.000000" stroke="none" 
	d="
M74.227196,146.938950 
	C73.191574,147.183228 72.480064,147.223694 71.416733,147.325790 
	C71.460442,144.609344 74.319870,144.333862 76.054718,142.425171 
	C81.593231,142.508087 87.291397,140.957047 92.019379,145.563126 
	C92.053291,146.059555 91.884468,146.260864 91.362946,146.636047 
	C89.120644,147.333389 87.429733,146.554626 85.720230,145.973358 
	C81.884544,144.669174 78.219139,145.678787 74.227196,146.938950 
z"/>
<path fill="#358DCA" opacity="1.000000" stroke="none" 
	d="
M98.303635,143.280029 
	C98.003922,141.941666 97.997154,140.884552 97.976059,139.431992 
	C98.796440,139.000565 99.631149,138.964554 100.883583,138.881882 
	C102.053284,139.590897 102.805244,140.346573 103.690987,141.397400 
	C102.915192,144.646408 100.800049,144.227386 98.303635,143.280029 
z"/>
<path fill="#036FB8" opacity="1.000000" stroke="none" 
	d="
M157.649200,181.688416 
	C157.290237,181.291962 157.100861,181.058807 156.780487,180.641510 
	C153.597763,175.597214 150.767426,170.644424 150.054993,164.392014 
	C149.987289,162.288116 149.990158,160.573303 149.948639,158.432678 
	C151.891144,146.561905 156.786652,137.168564 168.086349,132.324875 
	C178.458054,127.878975 187.563828,130.644547 196.181335,137.564880 
	C195.204071,139.380722 193.521683,139.252167 191.486816,139.163391 
	C186.346390,137.345276 181.553970,135.500381 176.359543,136.490173 
	C174.031326,136.933823 170.840836,137.424927 173.882416,141.398193 
	C174.556488,144.045959 172.265976,144.021942 170.896683,145.227356 
	C169.649292,145.977890 168.690201,146.544464 167.614136,147.520950 
	C165.139618,149.296692 163.617050,151.376465 162.611633,154.258209 
	C158.605515,162.403412 161.725067,171.865891 169.849472,176.957062 
	C171.232559,177.823776 172.833878,178.349701 174.110840,179.925385 
	C172.474930,184.883850 168.743027,186.094986 163.806946,186.019196 
	C162.650085,185.851334 161.940216,185.649948 160.995300,185.323608 
	C160.454391,184.778214 160.148544,184.357803 159.657074,183.748260 
	C159.263977,183.315887 159.044174,183.084320 158.637604,182.700653 
	C158.255325,182.301849 158.040085,182.073837 157.649200,181.688416 
z"/>
<path fill="#4B9BD2" opacity="1.000000" stroke="none" 
	d="
M199.640030,141.893158 
	C200.687866,143.013229 201.340454,144.033722 202.043488,145.360443 
	C202.189987,145.891113 202.286057,146.115540 202.308899,146.698120 
	C200.358429,148.963928 197.550964,147.635483 195.263031,149.251770 
	C194.821915,149.673706 194.631973,149.832184 194.093994,150.133484 
	C191.012207,149.036545 189.227005,147.035324 188.902390,143.657532 
	C192.158539,140.679016 195.794647,141.861588 199.640030,141.893158 
z"/>
<path fill="#79BCE7" opacity="1.000000" stroke="none" 
	d="
M205.095917,155.654175 
	C205.638229,157.315643 205.786270,158.843735 205.828140,160.683746 
	C203.164841,162.491760 200.440201,162.809570 197.137344,161.997314 
	C196.432693,161.681137 196.167801,161.521286 195.633057,160.986603 
	C194.991104,159.750931 194.926117,158.859116 195.230301,157.528748 
	C197.976349,153.641098 201.521317,155.649384 205.095917,155.654175 
z"/>
<path fill="#88CBF5" opacity="1.000000" stroke="none" 
	d="
M195.576736,161.150635 
	C198.795059,160.975922 201.734741,160.973587 205.198181,160.983490 
	C205.758286,161.576752 205.794601,162.157806 205.729324,163.005737 
	C202.038254,168.389954 199.658310,167.791306 195.537781,163.091919 
	C194.592514,162.418060 194.897568,161.867813 195.576736,161.150635 
z"/>
<path fill="#65AEDF" opacity="1.000000" stroke="none" 
	d="
M193.839386,150.715958 
	C193.949280,150.098999 193.953766,149.877701 193.976562,149.324921 
	C196.194107,146.938370 199.394455,149.865952 201.770767,147.250641 
	C202.030243,146.795975 202.046204,146.570709 202.078049,146.006042 
	C202.799667,147.161667 203.505402,148.656647 204.235855,150.508621 
	C203.087509,155.242630 199.293137,154.313965 195.820557,154.728424 
	C194.029282,153.849472 193.781601,152.528763 193.839386,150.715958 
z"/>
<path fill="#6EB7E7" opacity="1.000000" stroke="none" 
	d="
M194.854523,154.281387 
	C197.995468,153.192825 201.315567,153.835052 203.936768,151.070480 
	C204.657440,152.260712 205.054321,153.655792 205.470673,155.419220 
	C202.736038,158.429703 199.302155,155.110641 196.084091,156.963837 
	C194.272888,156.752060 194.274155,155.733902 194.854523,154.281387 
z"/>
<path fill="#3890CA" opacity="1.000000" stroke="none" 
	d="
M199.976593,141.760803 
	C196.879379,144.075089 193.063553,142.058914 189.465271,143.800873 
	C188.598984,144.248199 188.162415,144.164658 187.673187,143.360336 
	C187.688873,141.381882 188.679977,140.216583 189.994507,138.867599 
	C192.992035,139.654877 195.940781,139.347061 198.889496,140.727325 
	C199.550766,141.007431 199.774872,141.226730 199.976593,141.760803 
z"/>
<path fill="#1F7DBD" opacity="1.000000" stroke="none" 
	d="
M199.109146,140.597656 
	C196.335403,140.794266 193.208313,141.924332 190.429794,139.142822 
	C189.996414,138.792175 189.881485,138.642258 189.897141,138.240875 
	C191.839355,137.974380 193.651001,137.959335 195.924896,137.898178 
	C197.248993,138.676163 198.110855,139.500259 199.109146,140.597656 
z"/>
<path fill="#3A9493" opacity="1.000000" stroke="none" 
	d="
M178.386551,179.116577 
	C178.016327,179.169495 177.623306,179.150314 177.433655,179.098022 
	C166.036545,178.505280 159.218033,169.186951 161.326324,156.685303 
	C163.472336,154.814728 164.986725,156.301071 166.898102,157.347687 
	C168.463547,159.267944 168.155060,161.380081 168.754272,163.243683 
	C170.257919,167.920166 174.002136,171.325470 177.825516,171.054413 
	C182.450806,170.726501 184.520569,167.404526 185.955566,163.507736 
	C186.581757,161.807281 186.620087,159.944397 187.645355,157.994537 
	C189.391510,156.790649 190.894135,157.167068 192.756073,157.901367 
	C193.572754,158.359543 193.946564,158.729874 194.351532,159.562363 
	C194.118713,165.444290 192.941559,170.640060 188.652130,175.015717 
	C185.443970,177.257126 182.460739,179.061478 178.386551,179.116577 
z"/>
<path fill="#1D3448" opacity="1.000000" stroke="none" 
	d="
M162.421753,155.294617 
	C160.228226,167.875412 163.836517,173.766403 176.883698,178.936966 
	C176.957962,180.384354 175.864853,180.093185 174.602509,180.216568 
	C161.924240,175.839325 156.097107,164.293030 161.393311,154.016083 
	C162.175308,153.974808 162.458557,154.359634 162.421753,155.294617 
z"/>
<path fill="#25384C" opacity="1.000000" stroke="none" 
	d="
M187.715302,175.384827 
	C191.187683,170.704071 193.014420,165.720352 193.980927,159.987915 
	C194.654465,159.522522 195.052689,159.488983 195.629974,159.881042 
	C195.798401,160.142288 195.712784,160.568085 195.784088,160.773163 
	C195.610245,161.475235 195.365097,161.972214 195.160324,162.744949 
	C194.771988,168.230148 192.986450,172.776825 188.438187,176.181122 
	C187.939987,176.048660 187.793015,175.880585 187.715302,175.384827 
z"/>
<path fill="#DFEBEF" opacity="1.000000" stroke="none" 
	d="
M187.442703,175.118958 
	C187.833008,175.250305 187.881439,175.443420 188.008423,175.926636 
	C185.762360,179.732330 182.333191,180.217560 178.276947,179.433472 
	C181.044495,177.839905 184.072662,176.510330 187.442703,175.118958 
z"/>
<path fill="#1C2E45" opacity="1.000000" stroke="none" 
	d="
M173.695007,192.582275 
	C173.219971,192.421692 173.160095,192.157578 173.038971,191.491882 
	C174.030930,191.001968 174.647507,191.269791 173.695007,192.582275 
z"/>
<path fill="#8CCEF6" opacity="1.000000" stroke="none" 
	d="
M108.749802,167.668610 
	C104.712311,170.861618 101.549377,169.768570 98.529724,166.082794 
	C97.389908,165.111404 97.835869,164.148117 98.137825,162.837494 
	C98.716476,161.302826 98.892876,159.997650 100.141891,158.855804 
	C103.300598,159.407288 106.236679,159.391617 109.325470,160.553375 
	C109.401894,162.930161 109.134804,165.109253 108.749802,167.668610 
z"/>
<path fill="#78BBE6" opacity="1.000000" stroke="none" 
	d="
M109.755974,160.457153 
	C106.643738,160.568481 103.342300,162.367813 100.391586,159.261108 
	C99.832748,159.133759 99.573586,159.245270 98.934830,159.165527 
	C97.285904,157.605133 96.811707,156.065994 97.837845,153.955048 
	C101.810005,153.183350 105.378777,153.379868 108.988373,155.666840 
	C109.521545,157.293716 109.682251,158.728470 109.755974,160.457153 
z"/>
<path fill="#61AADC" opacity="1.000000" stroke="none" 
	d="
M105.788574,145.787796 
	C107.316528,146.927399 107.783920,148.537033 108.202614,150.540344 
	C105.915039,154.509567 102.486961,153.300934 98.826691,152.915176 
	C96.931465,152.377274 95.770340,151.611450 95.582977,149.547791 
	C98.082130,146.534775 101.664970,148.540924 104.611343,146.697327 
	C105.061195,146.262924 105.251778,146.099472 105.788574,145.787796 
z"/>
<path fill="#6CB1DF" opacity="1.000000" stroke="none" 
	d="
M97.409790,152.387817 
	C100.762543,151.705688 104.182556,152.703583 107.822197,151.071075 
	C108.607971,152.306061 108.990334,153.710388 109.366776,155.486832 
	C105.926842,155.287643 102.492844,154.716324 98.681992,154.080353 
	C97.789322,153.763763 97.481514,153.355118 97.409790,152.387817 
z"/>
<path fill="#4C9BD0" opacity="1.000000" stroke="none" 
	d="
M106.089600,145.330872 
	C106.109688,145.865463 106.084595,146.091354 106.025604,146.656494 
	C102.399750,148.692261 99.595772,147.089508 96.969345,144.416626 
	C97.097168,143.673233 97.288452,143.411163 97.787964,143.105164 
	C99.810478,142.834457 101.745605,143.499054 103.586502,141.909912 
	C103.824768,141.692535 104.047623,141.659500 104.153809,141.695877 
	C104.854813,142.828888 105.449623,143.925522 106.089600,145.330872 
z"/>
<path fill="#1E3044" opacity="1.000000" stroke="none" 
	d="
M98.832199,162.783020 
	C99.159348,163.852112 99.007866,164.715851 98.209160,165.672852 
	C96.976700,173.811447 92.122528,178.112656 84.375694,179.948395 
	C84.005348,179.515350 84.006500,179.125000 84.011826,178.441925 
	C84.577721,176.787476 85.845711,176.220901 87.031227,175.675995 
	C92.502579,173.161194 94.290268,167.709579 97.477097,162.932739 
	C98.022583,162.704315 98.261887,162.669525 98.832199,162.783020 
z"/>
<path fill="#57A2D5" opacity="1.000000" stroke="none" 
	d="
M96.704010,144.122925 
	C99.491539,145.665070 102.344337,146.359589 105.607582,146.988632 
	C103.585480,150.973953 99.718033,148.108063 96.183716,148.990875 
	C94.818039,148.995316 94.080902,148.594299 93.014465,147.555740 
	C92.622139,146.833282 92.610359,146.620026 92.836975,146.192749 
	C94.189133,145.401886 95.302887,144.825027 96.704010,144.122925 
z"/>
<path fill="#1F2C3F" opacity="1.000000" stroke="none" 
	d="
M92.861313,145.953873 
	C93.075371,145.978745 93.160271,146.466736 93.140358,146.713608 
	C92.359131,147.528854 91.623489,147.480637 90.766632,146.483566 
	C90.888901,146.062195 91.155861,146.025772 91.822464,145.923798 
	C92.222122,145.858231 92.647255,145.929001 92.861313,145.953873 
z"/>
<path fill="#2B2C2C" opacity="1.000000" stroke="none" 
	d="
M70.740471,159.103394 
	C78.132385,158.348465 80.262062,156.174667 78.898056,150.287750 
	C79.972198,146.773560 82.483971,147.781235 84.538757,148.484711 
	C90.495026,150.523911 92.618126,155.327057 93.074104,161.591965 
	C91.885475,167.091599 89.866646,171.667374 84.315979,173.065964 
	C76.133179,175.127731 69.002014,167.979416 70.740471,159.103394 
z"/>
<path fill="#3B9493" opacity="1.000000" stroke="none" 
	d="
M70.802612,158.588623 
	C71.159332,167.521835 75.552444,172.698380 82.492531,172.183167 
	C88.351433,171.748199 90.193756,167.348114 91.832336,162.331451 
	C93.421227,160.755264 95.073967,160.597794 97.239029,161.276855 
	C97.824059,161.676208 98.019028,161.888321 98.114746,162.521057 
	C95.417847,169.574097 92.577347,175.991318 84.363586,178.052094 
	C71.055977,177.765808 63.504322,168.787033 66.061172,156.321808 
	C67.609993,156.747925 69.085121,157.565872 70.802612,158.588623 
z"/>
<path fill="#1F7182" opacity="1.000000" stroke="none" 
	d="
M98.229797,161.696899 
	C96.259148,161.990112 94.546059,161.996902 92.403793,162.005554 
	C90.354256,151.976868 86.847923,148.495316 79.009193,149.683243 
	C77.287903,149.169312 75.838966,148.376236 74.146561,147.362946 
	C77.290436,142.609055 81.834839,143.777420 86.279922,144.701752 
	C87.529205,144.961533 88.702606,145.586212 90.266373,146.071075 
	C91.224663,146.433838 91.827393,146.769043 92.775284,147.032379 
	C93.120445,146.960480 93.074921,146.999634 93.057953,146.975006 
	C95.701683,150.651291 97.502182,154.729919 98.554527,159.553543 
	C98.757805,160.428574 98.689590,160.928619 98.229797,161.696899 
z"/>
<path fill="#6CAACB" opacity="1.000000" stroke="none" 
	d="
M189.766357,137.731812 
	C190.027710,137.989426 190.045227,138.468216 190.078278,138.705170 
	C190.096436,140.379471 189.787842,141.671783 188.196594,142.705246 
	C187.142792,143.918915 186.018814,144.205933 184.372070,144.299881 
	C180.813873,143.798767 177.652313,143.528992 174.244507,142.454956 
	C172.016296,141.725800 170.159683,140.919800 170.482742,138.669189 
	C170.773071,136.646561 172.752838,135.734894 174.537308,135.448395 
	C179.692902,134.620667 184.778748,134.867126 189.766357,137.731812 
z"/>
<path fill="#F4F6F6" opacity="1.000000" stroke="none" 
	d="
M162.631439,155.843002 
	C162.212646,155.238754 162.086411,154.807358 161.807495,154.070282 
	C162.093674,150.894821 163.838501,148.969635 166.440643,147.281784 
	C167.376846,146.592087 168.168106,146.358459 169.392136,146.129807 
	C172.203400,146.427734 174.017822,147.683289 175.611389,149.990967 
	C176.263351,156.689240 173.946182,159.128265 167.452133,158.544250 
	C165.693024,157.545609 164.308517,156.780716 162.631439,155.843002 
z"/>
<path fill="#273F53" opacity="1.000000" stroke="none" 
	d="
M173.694244,142.390656 
	C176.894165,141.852798 179.850479,141.805466 183.044327,143.055115 
	C184.525055,143.604202 186.287842,143.256516 186.369843,145.546722 
	C184.902390,147.173599 183.430313,146.535431 182.052322,146.057404 
	C178.601028,144.860199 175.145493,145.621826 171.291351,145.805420 
	C170.657135,145.618469 170.417770,145.499207 169.958572,145.044373 
	C170.683090,143.468887 172.119354,143.102142 173.694244,142.390656 
z"/>
<path fill="#273F53" opacity="1.000000" stroke="none" 
	d="
M170.183319,146.721298 
	C169.127808,147.025955 168.315750,147.121429 167.094849,147.146729 
	C167.203873,146.026428 168.064713,145.362839 169.428955,144.813110 
	C169.738754,144.708817 170.008286,144.998199 170.145813,145.140289 
	C170.486542,145.674164 170.534332,146.084091 170.183319,146.721298 
z"/>
<path fill="#E8EEF3" opacity="1.000000" stroke="none" 
	d="
M186.178070,146.309113 
	C185.977127,144.555252 184.837097,144.132660 183.624863,143.298584 
	C184.644241,142.972580 185.866791,142.930786 187.546021,142.936569 
	C188.212128,143.246704 188.421524,143.509247 188.867554,143.868515 
	C190.553391,145.921982 192.002609,147.878723 193.698303,150.077881 
	C194.275604,151.334351 194.606415,152.348389 195.035172,153.673096 
	C195.188461,154.858932 195.243805,155.734116 195.512878,156.858795 
	C195.767410,157.867035 195.808243,158.625763 195.823730,159.763397 
	C195.462921,160.027908 195.127426,159.913528 194.528656,159.748138 
	C194.253418,159.431427 194.141220,159.218582 193.755676,158.991882 
	C191.860718,158.404633 191.618149,156.815613 191.306076,155.451340 
	C190.511658,151.978165 188.297974,149.381348 186.178070,146.309113 
z"/>
<path fill="#57A6D9" opacity="1.000000" stroke="none" 
	d="
M201.579269,147.012787 
	C200.871902,152.298325 197.351181,148.944992 194.384537,149.004913 
	C195.546387,145.341293 198.758804,147.659042 201.579269,147.012787 
z"/>
<path fill="#2B2C2D" opacity="1.000000" stroke="none" 
	d="
M167.048035,158.706619 
	C173.429794,157.632233 174.847702,156.263260 174.751190,150.405304 
	C175.631500,147.077744 177.965240,147.711731 179.933472,148.305740 
	C184.327164,149.631805 187.387451,152.387344 187.983063,157.543579 
	C187.809891,158.251038 187.825516,158.581146 187.825043,158.911240 
	C187.813889,166.633896 183.489258,172.565689 177.845978,172.601395 
	C171.763412,172.639877 167.212128,166.965744 167.048035,158.706619 
z"/>
<path fill="#227183" opacity="1.000000" stroke="none" 
	d="
M188.225815,157.947266 
	C184.187698,150.408493 181.515213,148.614700 174.924576,149.740936 
	C173.485947,148.764084 172.128433,147.814255 170.227112,147.088760 
	C170.007690,146.560165 170.075531,146.189896 170.213348,145.550995 
	C175.389420,143.488892 180.424683,143.297501 185.728806,145.945831 
	C190.957336,148.571686 192.405334,153.225052 193.500519,158.531876 
	C191.938354,158.607986 190.294113,158.290802 188.225815,157.947266 
z"/>
<path fill="#6CB1DF" opacity="1.000000" stroke="none" 
	d="
M98.001869,162.222061 
	C98.013878,161.585327 98.055542,161.187332 98.072540,160.489655 
	C98.195885,159.771072 98.404495,159.384872 99.004013,159.009064 
	C99.334831,158.987045 99.713127,158.991547 99.902527,159.006897 
	C99.957634,160.174606 99.823357,161.326950 99.426140,162.705322 
	C98.971855,162.933014 98.780495,162.934708 98.302307,162.939026 
	C98.015480,162.941650 98.031517,162.460800 98.001869,162.222061 
z"/>
<path fill="#1F2C3F" opacity="1.000000" stroke="none" 
	d="
M99.220810,158.628967 
	C99.100220,159.319778 98.865608,159.652527 98.339447,160.087616 
	C97.021912,155.735001 94.747833,151.796707 92.957603,147.321503 
	C94.160072,147.018539 94.594879,147.981125 95.487045,148.818909 
	C96.172310,149.841507 96.627930,150.691269 97.260757,151.763412 
	C97.610321,152.446243 97.782684,152.906708 98.130096,153.691437 
	C97.912430,155.558411 98.405106,156.934341 99.220810,158.628967 
z"/>
</svg>